<svg width="60" height="60" viewBox="0 0 60 60" fill="none" xmlns="http://www.w3.org/2000/svg">
<g id="bx:map">
<path id="Vector" d="M30 35C35.515 35 40 30.515 40 25C40 19.485 35.515 15 30 15C24.485 15 20 19.485 20 25C20 30.515 24.485 35 30 35ZM30 20C32.7575 20 35 22.2425 35 25C35 27.7575 32.7575 30 30 30C27.2425 30 25 27.7575 25 25C25 22.2425 27.2425 20 30 20Z" fill="white"/>
<path id="Vector_2" d="M28.5502 54.535C28.9733 54.8372 29.4803 54.9996 30.0002 54.9996C30.5202 54.9996 31.0271 54.8372 31.4502 54.535C32.2102 53.9975 50.0727 41.1 50.0002 25C50.0002 13.9725 41.0277 5 30.0002 5C18.9727 5 10.0002 13.9725 10.0002 24.9875C9.92772 41.1 27.7902 53.9975 28.5502 54.535ZM30.0002 10C38.2727 10 45.0002 16.7275 45.0002 25.0125C45.0527 36.1075 34.0302 46.07 30.0002 49.3375C25.9727 46.0675 14.9477 36.1025 15.0002 25C15.0002 16.7275 21.7277 10 30.0002 10Z" fill="white"/>
</g>
</svg>
