<svg width="40" height="40" viewBox="0 0 40 40" fill="none" xmlns="http://www.w3.org/2000/svg">
<g id="icon/copy">
<path id="Vector" d="M32.5 2.5H11.5625C11.3906 2.5 11.25 2.64062 11.25 2.8125V5C11.25 5.17188 11.3906 5.3125 11.5625 5.3125H30.9375V32.1875C30.9375 32.3594 31.0781 32.5 31.25 32.5H33.4375C33.6094 32.5 33.75 32.3594 33.75 32.1875V3.75C33.75 3.05859 33.1914 2.5 32.5 2.5ZM27.5 7.5H7.5C6.80859 7.5 6.25 8.05859 6.25 8.75V29.4805C6.25 29.8125 6.38281 30.1289 6.61719 30.3633L13.3867 37.1328C13.4727 37.2188 13.5703 37.2891 13.6758 37.3477V37.4219H13.8398C13.9766 37.4727 14.1211 37.5 14.2695 37.5H27.5C28.1914 37.5 28.75 36.9414 28.75 36.25V8.75C28.75 8.05859 28.1914 7.5 27.5 7.5ZM13.6719 33.4453L10.3086 30.0781H13.6719V33.4453ZM25.9375 34.6875H16.1719V29.1406C16.1719 28.2773 15.4727 27.5781 14.6094 27.5781H9.0625V10.3125H25.9375V34.6875Z" fill="black"/>
</g>
</svg>
