<svg width="140" height="140" viewBox="0 0 140 140" fill="none" xmlns="http://www.w3.org/2000/svg">
<g id="fab" filter="url(#filter0_d_19_1281)">
<circle id="Ellipse 8" cx="66" cy="66" r="49" fill="#67C1C7" stroke="url(#paint0_linear_19_1281)" stroke-width="2"/>
<path id="Vector" d="M49.3333 54V46H96V54H49.3333ZM49.3333 70V62H96V70H49.3333ZM49.3333 86V78H96V86H49.3333ZM39.3333 54C38.3889 54 37.5967 53.616 36.9567 52.848C36.3167 52.08 35.9978 51.1307 36 50C36 48.8667 36.32 47.916 36.96 47.148C37.6 46.38 38.3911 45.9973 39.3333 46C40.2778 46 41.07 46.384 41.71 47.152C42.35 47.92 42.6689 48.8693 42.6667 50C42.6667 51.1333 42.3467 52.084 41.7067 52.852C41.0667 53.62 40.2756 54.0027 39.3333 54ZM39.3333 70C38.3889 70 37.5967 69.616 36.9567 68.848C36.3167 68.08 35.9978 67.1307 36 66C36 64.8667 36.32 63.916 36.96 63.148C37.6 62.38 38.3911 61.9973 39.3333 62C40.2778 62 41.07 62.384 41.71 63.152C42.35 63.92 42.6689 64.8693 42.6667 66C42.6667 67.1333 42.3467 68.084 41.7067 68.852C41.0667 69.62 40.2756 70.0027 39.3333 70ZM39.3333 86C38.3889 86 37.5967 85.616 36.9567 84.848C36.3167 84.08 35.9978 83.1307 36 82C36 80.8667 36.32 79.916 36.96 79.148C37.6 78.38 38.3911 77.9973 39.3333 78C40.2778 78 41.07 78.384 41.71 79.152C42.35 79.92 42.6689 80.8693 42.6667 82C42.6667 83.1333 42.3467 84.084 41.7067 84.852C41.0667 85.62 40.2756 86.0027 39.3333 86Z" fill="white"/>
</g>
<defs>
<filter id="filter0_d_19_1281" x="0" y="0" width="140" height="140" filterUnits="userSpaceOnUse" color-interpolation-filters="sRGB">
<feFlood flood-opacity="0" result="BackgroundImageFix"/>
<feColorMatrix in="SourceAlpha" type="matrix" values="0 0 0 0 0 0 0 0 0 0 0 0 0 0 0 0 0 0 127 0" result="hardAlpha"/>
<feOffset dx="4" dy="4"/>
<feGaussianBlur stdDeviation="10"/>
<feComposite in2="hardAlpha" operator="out"/>
<feColorMatrix type="matrix" values="0 0 0 0 0 0 0 0 0 0 0 0 0 0 0 0 0 0 0.25 0"/>
<feBlend mode="normal" in2="BackgroundImageFix" result="effect1_dropShadow_19_1281"/>
<feBlend mode="normal" in="SourceGraphic" in2="effect1_dropShadow_19_1281" result="shape"/>
</filter>
<linearGradient id="paint0_linear_19_1281" x1="66" y1="16" x2="66" y2="116" gradientUnits="userSpaceOnUse">
<stop stop-color="white"/>
<stop offset="0.5" stop-color="#67C1C7"/>
<stop offset="1" stop-opacity="0"/>
</linearGradient>
</defs>
</svg>
