<svg width="40" height="40" viewBox="0 0 40 40" fill="none" xmlns="http://www.w3.org/2000/svg">
<g id="bx:map">
<path id="Vector" d="M20.0002 23.3333C23.6768 23.3333 26.6668 20.3433 26.6668 16.6667C26.6668 12.99 23.6768 10 20.0002 10C16.3235 10 13.3335 12.99 13.3335 16.6667C13.3335 20.3433 16.3235 23.3333 20.0002 23.3333ZM20.0002 13.3333C21.8385 13.3333 23.3335 14.8283 23.3335 16.6667C23.3335 18.505 21.8385 20 20.0002 20C18.1618 20 16.6668 18.505 16.6668 16.6667C16.6668 14.8283 18.1618 13.3333 20.0002 13.3333Z" fill="#67C1C7"/>
<path id="Vector_2" d="M19.0333 36.3563C19.3154 36.5578 19.6534 36.6661 20 36.6661C20.3466 36.6661 20.6846 36.5578 20.9667 36.3563C21.4733 35.998 33.3816 27.3997 33.3333 16.6663C33.3333 9.31467 27.3516 3.33301 20 3.33301C12.6483 3.33301 6.66665 9.31467 6.66665 16.658C6.61832 27.3997 18.5267 35.998 19.0333 36.3563ZM20 6.66634C25.515 6.66634 30 11.1513 30 16.6747C30.035 24.0713 22.6866 30.713 20 32.8913C17.315 30.7113 9.96498 24.068 9.99998 16.6663C9.99998 11.1513 14.485 6.66634 20 6.66634Z" fill="#67C1C7"/>
</g>
</svg>
