<svg width="24" height="24" viewBox="0 0 24 24" fill="none" xmlns="http://www.w3.org/2000/svg">
<g id="icon/map">
<path id="Union" fill-rule="evenodd" clip-rule="evenodd" d="M19 11C19 11.6791 18.6783 12.5958 17.9296 13.7187C17.201 14.8116 16.193 15.914 15.1268 16.921C14.0688 17.9201 13.0027 18.7796 12.1968 19.3915C12.1301 19.4422 12.0652 19.4911 12.0024 19.5382C11.9389 19.4904 11.8734 19.4408 11.8059 19.3894C10.9996 18.7751 9.93299 17.9125 8.8745 16.9111C7.80766 15.9018 6.79891 14.7979 6.06979 13.7055C5.31989 12.5818 5 11.6697 5 11C5 7.13401 8.13401 4 12 4C15.866 4 19 7.13401 19 11ZM21 11C21 16 12 22 12 22C12 22 3 15.9706 3 11C3 6.02944 7.02944 2 12 2C16.9706 2 21 6.02944 21 11ZM14 11C14 12.1046 13.1046 13 12 13C10.8954 13 10 12.1046 10 11C10 9.89543 10.8954 9 12 9C13.1046 9 14 9.89543 14 11ZM16 11C16 13.2091 14.2091 15 12 15C9.79086 15 8 13.2091 8 11C8 8.79086 9.79086 7 12 7C14.2091 7 16 8.79086 16 11Z" fill="#1F1F1F"/>
</g>
</svg>
