<svg width="24" height="24" viewBox="0 0 24 24" fill="none" xmlns="http://www.w3.org/2000/svg">
<g id="icon/camera">
<path id="Union" fill-rule="evenodd" clip-rule="evenodd" d="M15 4H9V6H15V4ZM7 4V6H6C3.79086 6 2 7.79086 2 10V20V22H4H20H22V20V8V6H20H17V4V2H15H9H7V4ZM15 8H17H20V20H4V10C4 8.89543 4.89543 8 6 8H7H9H15ZM14 14C14 15.1046 13.1046 16 12 16C10.8954 16 10 15.1046 10 14C10 12.8954 10.8954 12 12 12C13.1046 12 14 12.8954 14 14ZM16 14C16 16.2091 14.2091 18 12 18C9.79086 18 8 16.2091 8 14C8 11.7909 9.79086 10 12 10C14.2091 10 16 11.7909 16 14Z" fill="#1F1F1F"/>
</g>
</svg>
