<svg width="20" height="20" viewBox="0 0 20 20" fill="none" xmlns="http://www.w3.org/2000/svg">
<g id="material-symbols:person">
<path id="Union" fill-rule="evenodd" clip-rule="evenodd" d="M12.1666 5.83335C12.1666 7.02997 11.1966 8.00002 9.99996 8.00002C8.80334 8.00002 7.83329 7.02997 7.83329 5.83335C7.83329 4.63674 8.80334 3.66669 9.99996 3.66669C11.1966 3.66669 12.1666 4.63674 12.1666 5.83335ZM14.1666 5.83335C14.1666 8.13454 12.3011 10 9.99996 10C7.69877 10 5.83329 8.13454 5.83329 5.83335C5.83329 3.53217 7.69877 1.66669 9.99996 1.66669C12.3011 1.66669 14.1666 3.53217 14.1666 5.83335ZM5.66663 13.6667H16.3333V16.3334H3.66663V15.6667C3.66663 14.5621 4.56206 13.6667 5.66663 13.6667ZM1.66663 15.6667C1.66663 13.4575 3.45749 11.6667 5.66663 11.6667H16.3333H18.3333V13.6667V16.3334V18.3334H16.3333H3.66663H1.66663V16.3334V15.6667Z" fill="#1F1F1F"/>
</g>
</svg>
