<svg width="20" height="20" viewBox="0 0 20 20" fill="none" xmlns="http://www.w3.org/2000/svg">
<g id="icon/logout">
<path id="Union" fill-rule="evenodd" clip-rule="evenodd" d="M2.33333 17.5L2.33333 18.5H3.33333H17.5H18.5V17.5L18.5 2.5V1.5L17.5 1.5L5.83333 1.5C3.90033 1.5 2.33333 3.067 2.33333 5L4.33333 5C4.33333 4.17157 5.0049 3.5 5.83333 3.5L16.5 3.5L16.5 16.5H3.33333V16.6667H2.33333L2.33333 17.5ZM8.60288 6.25699L5.33898 9.01746H15.112V10.4271H5.33902L8.60288 13.1875L9.36642 13.8333L8.07489 15.3603L7.31135 14.7146L2.31135 10.4858L1.40857 9.72225L2.31135 8.95871L7.31135 4.72992L8.60288 6.25699Z" fill="#1F1F1F"/>
</g>
</svg>
