<svg width="78" height="78" viewBox="0 0 78 78" fill="none" xmlns="http://www.w3.org/2000/svg">
<rect width="78" height="78" fill="#1E1E1E"/>
<g clip-path="url(#clip0_0_1)">
<rect width="1920" height="1080" transform="translate(-707 -341)" fill="#F8F8FA"/>
<rect x="-81" y="-81" width="866" height="722" rx="4" fill="white"/>
<circle cx="39" cy="39" r="80" fill="#D9D9D9"/>
<path d="M27.1377 9.75006C30.9727 9.19756 35.0352 13.3901 36.2052 19.1751C37.3752 24.9276 35.2627 30.0626 31.4277 30.6476C27.6252 31.2326 23.5302 27.0401 22.3277 21.2551C21.1252 15.5026 23.3027 10.3676 27.1377 9.75006ZM50.3752 9.75006C54.2427 10.3676 56.3877 15.5026 55.2502 21.2551C54.0152 27.0401 49.9527 31.2326 46.1177 30.6476C42.2502 30.0626 40.1377 24.9276 41.3402 19.1751C42.5102 13.3901 46.5727 9.19756 50.3752 9.75006ZM9.75018 24.7001C13.4552 23.1076 18.4927 26.0001 21.1252 31.0376C23.5952 36.1726 22.7502 41.5676 19.0777 43.1601C15.4052 44.7526 10.4002 41.8926 7.83268 36.7901C5.26518 31.6876 6.17518 26.2601 9.75018 24.7001ZM68.2502 24.7001C71.8252 26.2601 72.7352 31.6876 70.1677 36.7901C67.6002 41.8926 62.5952 44.7526 58.9227 43.1601C55.2502 41.5676 54.4052 36.1726 56.8752 31.0376C59.5077 26.0001 64.5452 23.1076 68.2502 24.7001ZM62.8227 59.7351C62.9527 62.7901 60.6127 66.1701 57.8177 67.4376C52.0002 70.1026 45.1102 64.5776 38.6427 64.5776C32.1752 64.5776 25.2202 70.3301 19.5002 67.4376C16.2502 65.8451 14.0077 61.6201 14.4302 58.1101C15.0152 53.2676 20.8327 50.6676 24.2777 47.1251C28.8602 42.5426 32.1102 33.9301 38.6427 33.9301C45.1427 33.9301 48.5877 42.4126 52.9752 47.1251C56.5827 51.0901 62.5952 54.4376 62.8227 59.7351Z" fill="#F5F5F5"/>
</g>
<defs>
<clipPath id="clip0_0_1">
<rect width="1920" height="1080" fill="white" transform="translate(-707 -341)"/>
</clipPath>
</defs>
</svg>
