<svg width="50" height="50" viewBox="0 0 60 40" fill="none" xmlns="http://www.w3.org/2000/svg">
<path d="M13.3333 8.00001V1.38408e-05H60V8.00001H13.3333ZM13.3333 24V16H60V24H13.3333ZM13.3333 40V32H60V40H13.3333ZM3.33334 8.00001C2.3889 8.00001 1.59668 7.61601 0.956678 6.84801C0.316678 6.08001 -0.00221069 5.13068 1.1534e-05 4.00001C1.1534e-05 2.86668 0.320012 1.91601 0.960012 1.14801C1.60001 0.380014 2.39112 -0.00265282 3.33334 1.38408e-05C4.27779 1.38408e-05 5.07001 0.384014 5.71001 1.15201C6.35001 1.92001 6.6689 2.86935 6.66668 4.00001C6.66668 5.13334 6.34668 6.08401 5.70668 6.85201C5.06668 7.62001 4.27557 8.00268 3.33334 8.00001ZM3.33334 24C2.3889 24 1.59668 23.616 0.956678 22.848C0.316678 22.08 -0.00221069 21.1307 1.1534e-05 20C1.1534e-05 18.8667 0.320012 17.916 0.960012 17.148C1.60001 16.38 2.39112 15.9973 3.33334 16C4.27779 16 5.07001 16.384 5.71001 17.152C6.35001 17.92 6.6689 18.8693 6.66668 20C6.66668 21.1333 6.34668 22.084 5.70668 22.852C5.06668 23.62 4.27557 24.0027 3.33334 24ZM3.33334 40C2.3889 40 1.59668 39.616 0.956678 38.848C0.316678 38.08 -0.00221069 37.1307 1.1534e-05 36C1.1534e-05 34.8667 0.320012 33.916 0.960012 33.148C1.60001 32.38 2.39112 31.9973 3.33334 32C4.27779 32 5.07001 32.384 5.71001 33.152C6.35001 33.92 6.6689 34.8693 6.66668 36C6.66668 37.1333 6.34668 38.084 5.70668 38.852C5.06668 39.62 4.27557 40.0027 3.33334 40Z" fill="white"/>
</svg>
