<svg width="180" height="42" viewBox="0 0 180 42" fill="none" xmlns="http://www.w3.org/2000/svg">
<path d="M36.7173 24.0696C37.9704 25.2303 38.2909 26.7881 38.2909 28.1016C38.2909 30.2092 37.0379 31.9503 35.6682 32.8667C34.6483 33.5692 32.8999 33.9663 32.0839 33.9663C31.5594 33.9663 31.2097 33.9358 31.0348 33.8441C30.8017 33.7219 30.5394 33.6303 30.5394 33.2332C30.5394 32.9278 30.9766 32.8667 31.3554 32.775C33.1913 32.439 35.5225 31.0034 35.5225 28.1932C35.5225 25.6579 34.0655 23.9474 31.6759 23.9474C31.472 23.9474 30.86 24.3445 30.7434 24.6194C29.8692 27.5518 27.9168 35.127 27.2465 38.2732C26.926 39.6478 27.1882 39.9532 29.2864 40.4725C29.5487 40.5336 29.8109 40.8085 29.8109 41.0223C29.8109 41.2972 29.403 41.6027 28.9076 41.6027C28.4122 41.6027 26.2266 41.4499 24.857 41.4499C24.245 41.4499 22.3217 41.511 21.6806 41.511C21.4766 41.511 21.127 41.2361 21.127 41.0529C21.127 40.7779 21.5058 40.3503 22.176 40.2281C23.5456 39.9532 23.9828 39.5561 24.3907 38.3954C24.7404 37.2347 27.0134 28.1016 27.6254 25.5969C27.8585 24.6499 27.7128 24.1918 25.9935 23.9169C25.5272 23.8252 25.2067 23.5809 25.2067 23.367C25.2358 23.0921 25.4689 22.7867 26.1392 22.7867C26.926 22.7867 28.1499 22.8478 28.9367 22.8478C30.1606 22.8478 32.2879 22.7256 33.1913 22.7256C34.794 22.7256 35.8722 23.3059 36.7173 24.0696Z" fill="black"/>
<path d="M48.8398 30.9113C49.5683 30.9113 49.6558 30.8502 50.326 29.9339C50.8797 29.1397 51.1128 29.0175 51.2585 29.0175C51.4625 29.0175 51.9579 29.5062 51.8413 29.8117C51.2585 31.0946 50.6757 33.4466 50.4717 34.2713C50.4134 34.5768 50.2968 34.7906 50.0929 34.7906C49.7432 34.7906 49.4226 34.4546 49.3935 33.9353C49.2769 32.8052 49.0438 32.5608 48.4901 32.4386C48.1987 32.3775 47.5868 32.3164 47.1496 32.3164C46.3628 32.3164 45.6343 32.4386 45.2555 32.4997C45.1681 32.5302 44.9349 32.8052 44.9058 32.8968C44.5561 33.8742 43.7402 37.5702 43.5653 38.6699C43.4779 39.2197 43.6527 39.8306 43.8859 39.8917C44.2647 40.0139 45.2846 40.1666 46.8 40.1666C49.2769 40.1666 50.1511 39.8306 51.1128 38.8532C51.5499 38.4255 51.9287 37.9979 52.5407 37.1121C52.7155 36.8372 53.0069 36.6844 53.1527 36.6844C53.5023 36.6844 53.5023 37.3564 53.5023 37.4786C53.4441 38.7615 51.8996 41.1441 51.4916 41.3884C51.1711 41.6022 50.8214 41.6633 50.5591 41.6633C48.2861 41.6633 46.3628 41.4495 41.3215 41.4495C39.981 41.4495 38.3783 41.6022 37.912 41.6022C37.3292 41.6022 36.9795 41.3579 36.9795 41.083C36.9795 40.7164 37.504 40.4721 37.8829 40.411C39.9519 40.1055 40.0976 39.8917 40.4764 38.7615C41.3798 35.9208 43.2156 28.8648 43.9733 25.7186C44.2356 24.5579 44.0899 24.1608 42.5745 23.8553C41.8169 23.7026 41.642 23.5193 41.642 23.3055C41.642 23.0612 41.9334 22.6946 42.6328 22.6946C42.8951 22.6946 45.8092 22.8473 47.849 22.8473H50.1511C52.803 22.8473 53.5898 22.7557 54.7845 22.6641C55.0468 22.6641 55.1634 23.2139 55.0468 23.4888C54.3766 25.2604 54.0852 26.5739 54.0269 26.7877C53.9103 27.307 53.5606 27.5513 53.3275 27.5513C53.0652 27.5513 52.8904 27.1542 52.8904 26.7572C52.8612 24.8022 52.6281 24.3746 52.1036 24.2219C51.4916 24.0997 50.6757 24.0692 49.4518 24.0692C48.869 24.0692 48.1696 24.1302 47.6159 24.2219C47.4702 24.2524 47.2371 24.5579 47.0622 24.955C46.8 25.5964 46.1589 27.7346 45.4886 30.5753C45.4595 30.667 45.5469 30.9113 45.6343 30.9113H48.8398Z" fill="black"/>
<path d="M69.9961 22.8475C71.6572 22.8475 73.0851 22.8169 73.6096 22.5115C74.0759 22.2366 74.3673 22.0838 74.5421 22.0838C74.7461 22.0838 75.1249 22.5115 74.9501 23.1224C74.7461 23.8249 74.309 25.2911 73.9884 26.3602C73.8136 27.0322 73.5222 27.2766 73.2016 27.2766C72.9685 27.2766 72.7937 26.9711 72.7645 26.4213C72.648 24.5275 72.0943 24.222 71.3366 24.222C70.9578 24.222 68.7722 24.2831 67.9271 24.2831C67.8106 24.2831 67.5192 24.6496 67.4609 24.8635C66.9655 26.5129 64.5759 35.4933 64.0223 38.2424C63.7017 39.7085 64.1971 39.8918 65.7707 40.3195C66.2661 40.4416 66.4992 40.7165 66.4992 40.9609C66.4701 41.2664 66.0621 41.5107 65.5376 41.5107C64.6925 41.5107 64.1097 41.4496 62.8858 41.4496C61.5744 41.4496 59.2723 41.6635 58.5729 41.6635C57.7861 41.6635 57.553 41.2969 57.553 41.0526C57.553 40.7776 57.961 40.4722 58.5729 40.3805C60.4379 40.0751 60.8168 39.342 61.2539 37.8758C61.8367 35.8598 62.5361 32.7136 64.4302 24.9856C64.4594 24.8329 64.4594 24.4664 64.3428 24.4358C64.0805 24.3136 62.9441 24.222 61.1373 24.222C60.4088 24.222 59.418 24.7718 58.1941 26.3907C57.961 26.7267 57.6113 27.0016 57.4947 27.0016C57.145 27.0016 56.9702 26.2075 57.0867 25.9631C57.5821 24.8329 58.1067 23.2446 58.4564 22.4809C58.6021 22.1755 58.8643 21.9922 59.01 21.9922C59.1266 21.9922 59.3597 22.1449 59.4763 22.206C60.1465 22.6031 60.5545 22.6642 60.7876 22.7253C61.1373 22.8169 62.4195 22.8475 64.168 22.8475H69.9961Z" fill="black"/>
<path d="M78.3891 22.7869C78.9136 22.7869 79.5547 22.848 80.7495 22.848C82.2066 22.848 83.8093 22.6953 84.8001 22.6953C85.2955 22.6953 85.5577 23.0313 85.5286 23.3062C85.5286 23.5811 85.1206 23.7644 84.8001 23.8255C83.2265 24.0699 83.0808 24.2837 82.6437 25.5666C81.9151 27.6742 79.7296 35.7382 79.2925 37.4488C78.7097 39.8008 79.1759 40.0757 80.5747 40.5033C80.9535 40.6255 81.3032 40.8088 81.3032 41.1448C81.3032 41.5419 80.8661 41.664 80.4872 41.664C80.1376 41.664 77.2235 41.4502 76.3492 41.4502C75.4459 41.4502 74.6882 41.5113 74.018 41.5113C73.4352 41.5113 72.998 41.328 72.998 41.0531C72.998 40.7171 73.3186 40.3811 74.1345 40.2284C75.7081 39.9535 75.9121 39.4953 75.9996 39.2204C77.4857 34.1499 79.5839 25.9942 79.7004 25.4444C79.9336 24.3753 79.817 24.2226 78.4182 23.9171C77.8937 23.7949 77.6023 23.5811 77.6023 23.3368C77.6314 23.0619 77.8354 22.7869 78.3891 22.7869Z" fill="black"/>
<path d="M102.633 29.5982C102.633 33.172 101.146 36.9291 98.5529 39.4033C96.8919 41.0222 94.3567 41.9997 92.2585 41.9997C90.5975 41.9997 88.849 41.5109 87.596 40.1975C86.7218 39.2811 85.6436 37.6011 85.6436 34.9131C85.6436 30.148 87.7126 26.2993 90.7432 24.0389C92.1128 23.0309 93.8321 22.2979 96.076 22.2979C100.185 22.2979 102.633 25.78 102.633 29.5982ZM92.4625 25.2302C89.869 27.7655 88.5576 31.6448 88.5576 35.9211C88.5576 36.7764 88.849 38.3648 89.3736 39.1895C90.0147 40.1975 91.1512 40.7473 91.9963 40.7473C93.5116 40.7473 94.5898 40.2891 95.7846 39.1284C98.0867 36.8375 99.6894 32.7749 99.6894 28.4375C99.6894 26.7575 98.8152 23.428 95.872 23.5808C94.8229 23.6419 93.8321 23.8557 92.4625 25.2302Z" fill="black"/>
<path d="M107.12 22.6946C107.557 22.6946 110.238 22.8473 111.083 22.8473C111.229 22.8473 111.666 23.1833 111.87 23.611C113.182 26.3295 117.436 35.0044 118.339 36.4706C118.398 36.5317 118.573 36.6539 118.631 36.5012C119.155 34.8212 120.729 28.7426 120.991 26.971C121.341 24.8022 121.166 24.4052 119.068 23.8553C118.543 23.7026 118.427 23.4888 118.427 23.3055C118.427 23.0001 118.806 22.6641 119.476 22.6641C119.797 22.6641 121.778 22.8473 122.944 22.8473C123.731 22.8473 124.313 22.7862 125.129 22.7862C125.8 22.7862 125.945 23.1222 125.945 23.3972C125.945 23.6415 125.508 23.8859 124.925 24.0081C123.789 24.283 123.235 24.5884 122.594 26.9099C121.72 30.2393 121.05 32.5913 120.321 35.7986C119.797 37.9673 119.767 38.731 119.767 39.0364C119.767 39.403 119.971 39.8306 120.642 40.2888C121.079 40.5637 121.166 40.7775 121.166 41.0219C121.166 41.2662 120.846 41.5717 120.467 41.5717C120.03 41.5717 118.718 41.4495 118.31 41.4801C118.165 41.4801 117.873 41.4801 117.728 41.4801C117.553 41.4801 117.349 41.2662 117.203 40.8692C117.028 40.4721 116.853 40.0444 116.62 39.4946C115.455 37.0204 112.453 30.9419 110.792 27.5208C110.675 27.3375 110.501 27.4292 110.471 27.5819C109.626 30.4532 108.519 35.0655 108.228 37.0815C107.849 39.4641 108.432 40.0139 110.122 40.3804C110.413 40.4415 110.792 40.747 110.792 40.9913C110.792 41.2662 110.413 41.6022 109.83 41.6022C109.248 41.6022 107.179 41.4495 106.537 41.4495C105.663 41.4495 104.847 41.6022 103.886 41.6022C103.39 41.6022 102.953 41.3579 102.953 41.1441C102.953 40.747 103.215 40.5026 103.827 40.3499C105.255 40.0139 105.78 39.4946 105.896 39.0975C106.829 36.5012 108.286 30.7892 109.218 27.0321C109.422 26.1768 109.51 25.8713 109.218 25.2299C108.752 24.2524 107.82 24.0692 106.945 23.8859C106.537 23.7942 106.159 23.5499 106.159 23.4277C106.159 23.0917 106.45 22.6946 107.12 22.6946Z" fill="black"/>
<path d="M139.845 23.5808C139.321 26.788 138.476 32.8055 138.068 38.1815C137.922 39.8615 138.301 39.9837 139.379 40.3197C140.079 40.564 140.253 40.8389 140.253 41.0833C140.253 41.2666 139.904 41.6026 139.437 41.6026C138.563 41.6026 137.223 41.4499 136.057 41.4499C135.037 41.4499 133.872 41.5415 133.405 41.5415C132.91 41.5415 132.531 41.236 132.531 40.9917C132.531 40.6862 132.852 40.4724 133.405 40.3502C134.542 40.1058 134.862 39.9226 135.066 38.9146C135.27 37.9677 135.591 35.9211 135.649 35.0659C135.649 34.9131 135.533 34.6382 135.387 34.6382C134.921 34.6382 131.686 34.7604 131.103 34.852C130.987 34.852 130.637 35.0048 130.52 35.1269C129.967 35.6768 128.626 37.7233 127.869 39.0979C127.548 39.6477 127.839 40.1059 128.481 40.3197C129.122 40.5335 129.267 40.7778 129.267 40.9611C129.267 41.2666 128.859 41.5415 128.364 41.5415C127.548 41.5415 126.819 41.4499 126.004 41.4499C125.1 41.4499 123.905 41.6331 122.769 41.6331C122.303 41.6331 121.924 41.3888 121.924 41.1138C121.924 40.8695 122.215 40.564 122.769 40.4419C125.217 39.9531 125.566 39.3422 126.79 37.7233C129.704 33.8746 135.212 26.3909 136.407 24.4055C136.582 24.1 137.048 23.7029 137.194 23.6724C137.602 23.6419 138.447 23.092 138.796 22.6949C138.971 22.4811 139.204 22.2979 139.496 22.2979C139.758 22.2979 139.962 22.7255 139.845 23.5808ZM135.591 33.1109C135.737 33.1109 135.941 32.7749 135.999 32.5917C136.232 31.6753 136.698 27.9488 136.786 27.1851C136.844 26.6659 136.815 26.4215 136.669 26.4215C136.553 26.4215 136.436 26.6048 136.145 26.9102C135.416 27.7655 132.24 32.2862 131.948 32.9277C131.89 33.0499 131.919 33.2637 132.123 33.2637C132.356 33.2637 134.571 33.2026 135.591 33.1109Z" fill="black"/>
<path d="M154.648 31.7974C154.561 31.828 154.503 32.164 154.532 32.2861C154.94 33.8745 155.814 36.4403 156.28 37.6316C157.125 39.7087 157.825 39.9836 159.282 40.3501C159.952 40.5029 160.069 40.5945 160.069 40.8389C160.069 41.1443 159.69 41.4803 159.34 41.5414C159.02 41.572 157.883 41.6636 156.921 41.6636C155.552 41.6636 154.911 41.1749 154.153 39.4338C153.599 38.1203 152.9 36.0738 152.288 34.3632C151.793 33.0192 151.093 32.6222 150.073 32.6222C149.898 32.6222 149.549 32.8665 149.491 33.0192C148.937 34.2716 148.354 37.0512 148.15 38.4869C147.975 39.6476 148.325 39.9836 149.432 40.3196C149.957 40.4723 150.132 40.6556 150.161 40.9C150.161 41.236 149.578 41.5414 149.257 41.5414C148.616 41.5414 147.392 41.4498 146.372 41.4498C144.828 41.4498 143.429 41.572 142.672 41.572C142.176 41.572 141.885 41.2971 141.885 41.0527C141.885 40.8083 142.147 40.4723 142.817 40.2891C144.653 39.8614 144.886 39.556 145.032 39.1589C145.353 38.1814 147.917 29.0178 148.616 25.5051C148.791 24.6192 148.82 24.3443 147.072 24.0083C146.693 23.9167 146.285 23.7029 146.285 23.3974C146.285 23.1836 146.693 22.8476 147.101 22.8476C147.596 22.8476 148.092 22.8171 148.471 22.8171C149.753 22.8171 152.142 22.6338 153.92 22.6338C155.231 22.6338 156.28 22.756 157.271 23.3669C158.495 24.0694 159.165 25.7189 159.165 26.8491C159.165 29.5982 157.009 31.3698 154.648 31.7974ZM155.319 24.3749C154.678 23.9472 154.066 23.8251 152.521 23.8251C152.405 23.8251 152.026 24.0694 151.88 24.3138C151.414 25.1996 150.19 29.5676 149.986 31.0643C149.957 31.4003 150.161 31.5836 150.306 31.5836C151.443 31.5836 153.366 31.2171 154.444 30.5756C155.115 30.2091 156.339 28.3458 156.339 26.8491C156.339 25.8411 156.076 24.9247 155.319 24.3749Z" fill="black"/>
<path d="M162.807 22.7256C163.536 22.7256 164.643 22.8478 165.721 22.8478C167.353 22.8478 168.169 22.7561 168.723 22.7561C169.189 22.7561 169.539 23.031 169.539 23.2143C169.539 23.3976 169.335 23.7947 168.839 23.9169C167.528 24.3139 167.382 24.4972 167.528 25.0165C167.703 25.6579 168.752 29.0485 169.305 30.7285C169.364 30.9729 169.568 30.9729 169.772 30.7896C170.18 30.3619 173.502 26.4216 174.347 25.2303C174.842 24.5583 174.696 24.0696 173.851 23.8863C173.327 23.7641 173.123 23.4892 173.123 23.2449C173.123 23.0616 173.414 22.7561 173.968 22.7561C174.376 22.7561 175.396 22.8172 176.678 22.8478C177.319 22.8478 178.456 22.7561 179.184 22.7561C179.65 22.7561 180 22.8478 180 23.2449C180 23.5198 179.65 23.7947 179.155 23.8863C177.727 24.1612 176.94 24.5583 175.716 25.8412C174.201 27.399 171.637 30.4841 170.617 31.767C170.063 32.439 169.743 32.9889 169.539 33.8136C169.218 35.0965 168.489 37.9678 168.373 38.5481C168.169 39.6478 168.577 40.0754 170.15 40.4114C170.5 40.503 170.879 40.7779 170.879 41.0223C170.879 41.3583 170.5 41.5721 169.947 41.5721C169.189 41.5721 167.032 41.4499 166.391 41.4499C165.401 41.4499 164.468 41.5721 163.069 41.5721C162.37 41.5721 162.166 41.2361 162.166 41.0529C162.166 40.8085 162.603 40.4419 162.982 40.3809C164.934 39.9838 165.167 39.7394 165.605 38.151L166.624 34.3634C166.945 33.2332 167.003 32.4696 166.858 31.8587C166.624 30.8812 165.721 28.1932 165.022 26.2078C164.439 24.4972 164.089 24.2529 162.778 23.9169C162.428 23.8252 161.962 23.5198 161.962 23.2754C161.962 23.031 162.197 22.7256 162.807 22.7256Z" fill="black"/>
<path d="M15.5903 2.0774C16.8434 3.23813 17.1639 4.79595 17.1639 6.1094C17.1639 8.21704 15.9109 9.95813 14.5413 10.8745C13.5213 11.577 11.7729 11.9741 10.957 11.9741C10.4324 11.9741 10.0827 11.9436 9.90788 11.8519C9.67476 11.7298 9.41249 11.6381 9.41249 11.241C9.41249 10.9356 9.8496 10.8745 10.2284 10.7829C12.0643 10.4469 14.3956 9.01122 14.3956 6.20104C14.3956 3.66576 12.9385 1.95522 10.549 1.95522C10.345 1.95522 9.73304 2.35231 9.61648 2.62722C8.74225 5.55958 6.78981 13.1349 6.11958 16.281C5.79903 17.6556 6.06129 17.961 8.15943 18.4803C8.4217 18.5414 8.68397 18.8163 8.68397 19.0301C8.68397 19.305 8.276 19.6105 7.7806 19.6105C7.28521 19.6105 5.09964 19.4578 3.73003 19.4578C3.11807 19.4578 1.19477 19.5189 0.553676 19.5189C0.34969 19.5189 0 19.2439 0 19.0607C0 18.7858 0.37883 18.3581 1.04907 18.2359C2.41869 17.961 2.8558 17.5639 3.26377 16.4032C3.61346 15.2425 5.88645 6.1094 6.4984 3.60467C6.73153 2.65776 6.58583 2.19958 4.86652 1.92467C4.40026 1.83304 4.07972 1.58867 4.07972 1.37485C4.10886 1.09995 4.34198 0.794493 5.01222 0.794493C5.79903 0.794493 7.02294 0.855583 7.80974 0.855583C9.03366 0.855583 11.1609 0.733398 12.0643 0.733398C13.667 0.733398 14.7453 1.31376 15.5903 2.0774Z" fill="#67C1C7"/>
<path d="M27.7129 8.91915C28.4414 8.91915 28.5288 8.85806 29.199 7.94169C29.7527 7.14751 29.9858 7.02533 30.1315 7.02533C30.3355 7.02533 30.8309 7.51406 30.7144 7.81951C30.1315 9.10242 29.5487 11.4544 29.3447 12.2791C29.2865 12.5846 29.1699 12.7984 28.9659 12.7984C28.6162 12.7984 28.2957 12.4624 28.2665 11.9431C28.15 10.813 27.9168 10.5686 27.3632 10.4464C27.0718 10.3853 26.4598 10.3242 26.0227 10.3242C25.2359 10.3242 24.5074 10.4464 24.1285 10.5075C24.0411 10.5381 23.808 10.813 23.7788 10.9046C23.4292 11.8821 22.6132 15.5781 22.4384 16.6777C22.3509 17.2275 22.5258 17.8384 22.7589 17.8995C23.1378 18.0217 24.1577 18.1744 25.673 18.1744C28.15 18.1744 29.0242 17.8384 29.9858 16.861C30.423 16.4333 30.8018 16.0057 31.4137 15.1199C31.5886 14.845 31.88 14.6922 32.0257 14.6922C32.3754 14.6922 32.3754 15.3642 32.3754 15.4864C32.3171 16.7693 30.7726 19.1519 30.3647 19.3962C30.0441 19.6101 29.6944 19.6711 29.4322 19.6711C27.1592 19.6711 25.2359 19.4573 20.1945 19.4573C18.854 19.4573 17.2513 19.6101 16.785 19.6101C16.2022 19.6101 15.8525 19.3657 15.8525 19.0908C15.8525 18.7242 16.3771 18.4799 16.7559 18.4188C18.8249 18.1133 18.9706 17.8995 19.3494 16.7693C20.2528 13.9286 22.0887 6.8726 22.8463 3.72642C23.1086 2.56569 22.9629 2.1686 21.4476 1.86315C20.6899 1.71042 20.5151 1.52715 20.5151 1.31333C20.5151 1.06897 20.8065 0.702422 21.5059 0.702422C21.7681 0.702422 24.6822 0.85515 26.7221 0.85515H29.0242C31.676 0.85515 32.4628 0.763511 33.6576 0.671875C33.9199 0.671875 34.0364 1.22169 33.9199 1.4966C33.2496 3.26824 32.9582 4.58169 32.8999 4.79551C32.7834 5.31478 32.4337 5.55915 32.2005 5.55915C31.9383 5.55915 31.7634 5.16206 31.7634 4.76497C31.7343 2.81006 31.5012 2.38242 30.9766 2.22969C30.3647 2.10751 29.5487 2.07697 28.3248 2.07697C27.742 2.07697 27.0426 2.13806 26.4889 2.22969C26.3432 2.26024 26.1101 2.56569 25.9353 2.96278C25.673 3.60424 25.0319 5.74242 24.3617 8.58315C24.3325 8.67479 24.4199 8.91915 24.5074 8.91915H27.7129Z" fill="#67C1C7"/>
<path d="M48.8692 0.855274C50.5302 0.855274 51.9581 0.824726 52.4826 0.519272C52.9489 0.244363 53.2403 0.0916373 53.4151 0.0916373C53.6191 0.0916373 53.998 0.519272 53.8231 1.13018C53.6191 1.83273 53.182 3.29891 52.8615 4.368C52.6866 5.04 52.3952 5.28436 52.0747 5.28436C51.8415 5.28436 51.6667 4.97891 51.6376 4.42909C51.521 2.53527 50.9673 2.22982 50.2097 2.22982C49.8308 2.22982 47.6453 2.29091 46.8002 2.29091C46.6836 2.29091 46.3922 2.65745 46.3339 2.87127C45.8385 4.52073 43.449 13.5011 42.8953 16.2502C42.5748 17.7164 43.0702 17.8996 44.6438 18.3273C45.1392 18.4495 45.3723 18.7244 45.3723 18.9687C45.3431 19.2742 44.9352 19.5185 44.4106 19.5185C43.5655 19.5185 42.9827 19.4575 41.7588 19.4575C40.4475 19.4575 38.1454 19.6713 37.446 19.6713C36.6592 19.6713 36.426 19.3047 36.426 19.0604C36.426 18.7855 36.834 18.48 37.446 18.3884C39.311 18.0829 39.6898 17.3498 40.1269 15.8836C40.7097 13.8676 41.4091 10.7215 43.3033 2.99346C43.3324 2.84073 43.3324 2.47418 43.2159 2.44364C42.9536 2.32145 41.8171 2.22982 40.0104 2.22982C39.2818 2.22982 38.2911 2.77963 37.0671 4.39854C36.834 4.73454 36.4843 5.00945 36.3678 5.00945C36.0181 5.00945 35.8432 4.21527 35.9598 3.97091C36.4552 2.84073 36.9797 1.25237 37.3294 0.488729C37.4751 0.183275 37.7374 0 37.8831 0C37.9997 0 38.2328 0.152726 38.3493 0.213817C39.0196 0.610908 39.4276 0.671998 39.6607 0.733089C40.0104 0.824725 41.2926 0.855274 43.041 0.855274H48.8692Z" fill="#67C1C7"/>
<path d="M57.2621 0.793786C57.7867 0.793786 58.4278 0.854876 59.6226 0.854876C61.0796 0.854876 62.6823 0.702148 63.6731 0.702148C64.1685 0.702148 64.4308 1.03815 64.4017 1.31306C64.4017 1.58797 63.9937 1.77124 63.6731 1.83233C62.0995 2.07669 61.9538 2.29051 61.5167 3.57342C60.7882 5.68106 58.6026 13.7451 58.1655 15.4556C57.5827 17.8076 58.049 18.0825 59.4477 18.5101C59.8265 18.6323 60.1762 18.8156 60.1762 19.1516C60.1762 19.5487 59.7391 19.6709 59.3603 19.6709C59.0106 19.6709 56.0965 19.4571 55.2223 19.4571C54.3189 19.4571 53.5613 19.5181 52.891 19.5181C52.3082 19.5181 51.8711 19.3349 51.8711 19.06C51.8711 18.724 52.1916 18.388 53.0076 18.2352C54.5812 17.9603 54.7852 17.5021 54.8726 17.2272C56.3588 12.1567 58.4569 4.00106 58.5735 3.45124C58.8066 2.38215 58.6901 2.22942 57.2913 1.92397C56.7668 1.80178 56.4753 1.58796 56.4753 1.3436C56.5045 1.06869 56.7085 0.793786 57.2621 0.793786Z" fill="#67C1C7"/>
<path d="M81.5057 7.60603C81.5057 11.1798 80.0195 14.9369 77.426 17.4111C75.765 19.03 73.2297 20.0075 71.1316 20.0075C69.4705 20.0075 67.7221 19.5188 66.469 18.2053C65.5948 17.2889 64.5166 15.6089 64.5166 12.9209C64.5166 8.15585 66.5856 4.30712 69.6162 2.04675C70.9859 1.03875 72.7052 0.305664 74.949 0.305664C79.0579 0.305664 81.5057 3.78784 81.5057 7.60603ZM71.3356 3.23803C68.742 5.7733 67.4307 9.65257 67.4307 13.9289C67.4307 14.7842 67.7221 16.3726 68.2466 17.1973C68.8877 18.2053 70.0242 18.7551 70.8693 18.7551C72.3846 18.7551 73.4628 18.2969 74.6576 17.1362C76.9597 14.8453 78.5625 10.7828 78.5625 6.4453C78.5625 4.7653 77.6883 1.43584 74.745 1.58857C73.696 1.64966 72.7052 1.86348 71.3356 3.23803Z" fill="#67C1C7"/>
<path d="M85.9933 0.702422C86.4304 0.702422 89.1114 0.85515 89.9565 0.85515C90.1022 0.85515 90.5393 1.19115 90.7433 1.61879C92.0546 4.33733 96.3092 13.0122 97.2125 14.4784C97.2708 14.5395 97.4457 14.6617 97.5039 14.509C98.0285 12.829 99.6021 6.75042 99.8643 4.97879C100.214 2.81006 100.039 2.41297 97.941 1.86315C97.4165 1.71042 97.2999 1.4966 97.2999 1.31333C97.2999 1.00788 97.6788 0.671875 98.349 0.671875C98.6696 0.671875 100.651 0.85515 101.817 0.85515C102.604 0.85515 103.186 0.79406 104.002 0.79406C104.673 0.79406 104.818 1.13006 104.818 1.40497C104.818 1.64933 104.381 1.8937 103.798 2.01588C102.662 2.29079 102.108 2.59624 101.467 4.9177C100.593 8.24715 99.9226 10.5991 99.1941 13.8064C98.6696 15.9751 98.6404 16.7388 98.6404 17.0442C98.6404 17.4108 98.8444 17.8384 99.5147 18.2966C99.9518 18.5715 100.039 18.7853 100.039 19.0297C100.039 19.2741 99.7186 19.5795 99.3398 19.5795C98.9027 19.5795 97.5914 19.4573 97.1834 19.4879C97.0377 19.4879 96.7463 19.4879 96.6006 19.4879C96.4257 19.4879 96.2217 19.2741 96.076 18.877C95.9012 18.4799 95.7263 18.0522 95.4932 17.5024C94.3276 15.0282 91.3261 8.94969 89.6651 5.5286C89.5485 5.34533 89.3736 5.43697 89.3445 5.58969C88.4994 8.46097 87.3921 13.0733 87.1007 15.0893C86.7218 17.4719 87.3046 18.0217 88.9948 18.3882C89.2862 18.4493 89.6651 18.7548 89.6651 18.9991C89.6651 19.2741 89.2862 19.6101 88.7034 19.6101C88.1206 19.6101 86.0516 19.4573 85.4105 19.4573C84.5363 19.4573 83.7203 19.6101 82.7587 19.6101C82.2633 19.6101 81.8262 19.3657 81.8262 19.1519C81.8262 18.7548 82.0884 18.5104 82.7004 18.3577C84.1283 18.0217 84.6528 17.5024 84.7694 17.1053C85.7019 14.509 87.1589 8.79697 88.0915 5.03988C88.2954 4.1846 88.3829 3.87915 88.0915 3.2377C87.6252 2.26024 86.6927 2.07697 85.8185 1.89369C85.4105 1.80206 85.0317 1.55769 85.0317 1.43551C85.0317 1.09951 85.3231 0.702422 85.9933 0.702422Z" fill="#67C1C7"/>
<path d="M118.718 1.58857C118.194 4.79584 117.349 10.8133 116.941 16.1893C116.795 17.8693 117.174 17.9915 118.252 18.3275C118.952 18.5718 119.126 18.8468 119.126 19.0911C119.126 19.2744 118.777 19.6104 118.311 19.6104C117.436 19.6104 116.096 19.4577 114.93 19.4577C113.91 19.4577 112.745 19.5493 112.278 19.5493C111.783 19.5493 111.404 19.2438 111.404 18.9995C111.404 18.694 111.725 18.4802 112.278 18.358C113.415 18.1137 113.735 17.9304 113.939 16.9224C114.143 15.9755 114.464 13.9289 114.522 13.0737C114.522 12.9209 114.406 12.646 114.26 12.646C113.794 12.646 110.559 12.7682 109.976 12.8598C109.86 12.8598 109.51 13.0126 109.393 13.1348C108.84 13.6846 107.499 15.7311 106.742 17.1057C106.421 17.6555 106.712 18.1137 107.354 18.3275C107.995 18.5413 108.14 18.7857 108.14 18.9689C108.14 19.2744 107.732 19.5493 107.237 19.5493C106.421 19.5493 105.693 19.4577 104.877 19.4577C103.973 19.4577 102.778 19.6409 101.642 19.6409C101.176 19.6409 100.797 19.3966 100.797 19.1217C100.797 18.8773 101.088 18.5718 101.642 18.4497C104.09 17.9609 104.439 17.35 105.663 15.7311C108.577 11.8824 114.085 4.39875 115.28 2.4133C115.455 2.10784 115.921 1.71075 116.067 1.68021C116.475 1.64966 117.32 1.09985 117.669 0.702756C117.844 0.488938 118.077 0.305664 118.369 0.305664C118.631 0.305664 118.835 0.733299 118.718 1.58857ZM114.464 11.1188C114.61 11.1188 114.814 10.7828 114.872 10.5995C115.105 9.68312 115.571 5.95657 115.659 5.19294C115.717 4.67366 115.688 4.4293 115.542 4.4293C115.426 4.4293 115.309 4.61257 115.018 4.91803C114.289 5.7733 111.113 10.294 110.821 10.9355C110.763 11.0577 110.792 11.2715 110.996 11.2715C111.229 11.2715 113.444 11.2104 114.464 11.1188Z" fill="#67C1C7"/>
<path d="M133.521 9.80524C133.434 9.83578 133.376 10.1718 133.405 10.294C133.813 11.8823 134.687 14.4481 135.153 15.6394C135.998 17.7165 136.698 17.9914 138.155 18.358C138.825 18.5107 138.942 18.6023 138.942 18.8467C138.942 19.1521 138.563 19.4881 138.213 19.5492C137.893 19.5798 136.756 19.6714 135.794 19.6714C134.425 19.6714 133.784 19.1827 133.026 17.4416C132.472 16.1281 131.773 14.0816 131.161 12.3711C130.666 11.0271 129.966 10.63 128.946 10.63C128.772 10.63 128.422 10.8743 128.364 11.0271C127.81 12.2794 127.227 15.0591 127.023 16.4947C126.848 17.6554 127.198 17.9914 128.305 18.3274C128.83 18.4801 129.005 18.6634 129.034 18.9078C129.034 19.2438 128.451 19.5492 128.13 19.5492C127.489 19.5492 126.265 19.4576 125.246 19.4576C123.701 19.4576 122.302 19.5798 121.545 19.5798C121.049 19.5798 120.758 19.3049 120.758 19.0605C120.758 18.8161 121.02 18.4801 121.69 18.2969C123.526 17.8692 123.759 17.5638 123.905 17.1667C124.226 16.1892 126.79 7.0256 127.489 3.51287C127.664 2.62705 127.693 2.35215 125.945 2.01615C125.566 1.92451 125.158 1.71069 125.158 1.40524C125.158 1.19142 125.566 0.855419 125.974 0.855419C126.469 0.855419 126.965 0.824871 127.344 0.824871C128.626 0.824871 131.015 0.641602 132.793 0.641602C134.104 0.641602 135.153 0.763781 136.144 1.37469C137.368 2.07724 138.038 3.72669 138.038 4.85687C138.038 7.60596 135.882 9.3776 133.521 9.80524ZM134.192 2.38269C133.551 1.95505 132.939 1.83287 131.394 1.83287C131.278 1.83287 130.899 2.07724 130.753 2.3216C130.287 3.20742 129.063 7.57542 128.859 9.07214C128.83 9.40814 129.034 9.59141 129.18 9.59141C130.316 9.59141 132.239 9.22487 133.318 8.58342C133.988 8.21687 135.212 6.3536 135.212 4.85687C135.212 3.84887 134.949 2.93251 134.192 2.38269Z" fill="#67C1C7"/>
<path d="M141.681 0.733398C142.41 0.733398 143.517 0.855583 144.595 0.855583C146.227 0.855583 147.043 0.763946 147.597 0.763946C148.063 0.763946 148.413 1.03885 148.413 1.22213C148.413 1.4054 148.209 1.80249 147.713 1.92467C146.402 2.32176 146.256 2.50503 146.402 3.02431C146.577 3.66576 147.626 7.05631 148.179 8.73631C148.238 8.98067 148.442 8.98067 148.646 8.7974C149.054 8.36976 152.376 4.4294 153.221 3.23813C153.716 2.56613 153.57 2.0774 152.725 1.89413C152.201 1.77194 151.997 1.49704 151.997 1.25267C151.997 1.0694 152.288 0.763946 152.842 0.763946C153.25 0.763946 154.27 0.825038 155.552 0.855583C156.193 0.855583 157.33 0.763946 158.058 0.763946C158.524 0.763946 158.874 0.855584 158.874 1.25267C158.874 1.52758 158.524 1.80249 158.029 1.89413C156.601 2.16904 155.814 2.56613 154.59 3.84904C153.075 5.40686 150.511 8.49194 149.491 9.77485C148.937 10.4469 148.617 10.9967 148.413 11.8214C148.092 13.1043 147.363 15.9756 147.247 16.5559C147.043 17.6556 147.451 18.0832 149.025 18.4192C149.374 18.5109 149.753 18.7858 149.753 19.0301C149.753 19.3661 149.374 19.5799 148.821 19.5799C148.063 19.5799 145.906 19.4578 145.265 19.4578C144.275 19.4578 143.342 19.5799 141.943 19.5799C141.244 19.5799 141.04 19.2439 141.04 19.0607C141.04 18.8163 141.477 18.4498 141.856 18.3887C143.808 17.9916 144.041 17.7472 144.479 16.1589L145.498 12.3712C145.819 11.241 145.877 10.4774 145.732 9.86649C145.498 8.88904 144.595 6.20104 143.896 4.21558C143.313 2.50504 142.963 2.26067 141.652 1.92467C141.302 1.83304 140.836 1.52758 140.836 1.28322C140.836 1.03885 141.069 0.733398 141.681 0.733398Z" fill="#67C1C7"/>
</svg>
