<svg width="48" height="48" viewBox="0 0 48 48" fill="none" xmlns="http://www.w3.org/2000/svg">
<g id="icon/right">
<path id="Vector" d="M12.1078 22.8186L33.2391 6.31394C33.2943 6.27047 33.3606 6.24345 33.4305 6.236C33.5004 6.22854 33.571 6.24094 33.6341 6.27178C33.6973 6.30262 33.7504 6.35065 33.7875 6.41034C33.8246 6.47003 33.8441 6.53898 33.8437 6.60925V10.2327C33.8437 10.4624 33.7359 10.6827 33.5578 10.8233L16.6828 23.9999L33.5578 37.1764C33.7406 37.3171 33.8437 37.5374 33.8437 37.7671V41.3905C33.8437 41.7046 33.4828 41.878 33.2391 41.6858L12.1078 25.1811C11.9282 25.041 11.7829 24.8618 11.683 24.6571C11.5831 24.4524 11.5311 24.2277 11.5311 23.9999C11.5311 23.7721 11.5831 23.5473 11.683 23.3426C11.7829 23.1379 11.9282 22.9587 12.1078 22.8186Z" fill="#F8F8FA"/>
</g>
</svg>
