<svg width="40" height="40" viewBox="0 0 40 40" fill="none" xmlns="http://www.w3.org/2000/svg">
<g id="icon">
<path id="Vector" d="M28.063 7.5C28.973 7.49924 29.8741 7.68016 30.7134 8.03218C31.5527 8.3842 32.3132 8.90022 32.9504 9.55C34.2635 10.883 34.9995 12.6789 34.9995 14.55C34.9995 16.4211 34.2635 18.217 32.9504 19.55L20.0005 32.6625L7.05045 19.55C5.73743 18.217 5.00144 16.4211 5.00144 14.55C5.00144 12.6789 5.73743 10.883 7.05045 9.55C7.68807 8.90069 8.44867 8.38494 9.28784 8.03287C10.127 7.6808 11.0279 7.49947 11.938 7.49947C12.848 7.49947 13.7489 7.6808 14.5881 8.03287C15.4272 8.38494 16.1878 8.90069 16.8254 9.55L20.0005 12.8L23.163 9.575C23.7983 8.91748 24.5596 8.39483 25.4016 8.0383C26.2435 7.68177 27.1486 7.49869 28.063 7.5ZM28.063 5C26.82 4.99895 25.5893 5.24607 24.4431 5.72688C23.2969 6.20769 22.2582 6.91251 21.388 7.8L20.0005 9.2L18.6129 7.8C17.7416 6.91411 16.7027 6.21051 15.5567 5.73024C14.4107 5.24997 13.1805 5.00262 11.938 5.00262C10.6954 5.00262 9.46522 5.24997 8.31922 5.73024C7.17321 6.21051 6.13426 6.91411 5.26295 7.8C3.4903 9.60454 2.49707 12.033 2.49707 14.5625C2.49707 17.0921 3.4903 19.5205 5.26295 21.325L20.0005 36.25L34.7379 21.325C36.5106 19.5205 37.5038 17.0921 37.5038 14.5625C37.5038 12.033 36.5106 9.60454 34.7379 7.8C33.8669 6.91363 32.828 6.20956 31.682 5.72883C30.536 5.2481 29.3057 5.00035 28.063 5Z" fill="#1F1F1F"/>
</g>
</svg>
