<svg width="20" height="20" viewBox="0 0 110 110" fill="none" xmlns="http://www.w3.org/2000/svg">
<path d="M55.1796 0.889868C25.1926 0.889868 0.896477 25.186 0.896477 55.173C0.896477 85.1601 25.1926 109.456 55.1796 109.456C85.1667 109.456 109.463 85.1601 109.463 55.173C109.463 25.186 85.1667 0.889868 55.1796 0.889868ZM55.1796 21.9027C65.8174 21.9027 74.4414 30.5267 74.4414 41.1645C74.4414 51.8022 65.8174 60.4262 55.1796 60.4262C44.5419 60.4262 35.9179 51.8022 35.9179 41.1645C35.9179 30.5267 44.5419 21.9027 55.1796 21.9027ZM55.1796 97.1987C42.3312 97.1987 30.8179 91.3764 23.1132 82.2708C27.2282 74.5223 35.2831 69.1816 44.6732 69.1816C45.1985 69.1816 45.7239 69.2691 46.2273 69.4223C49.0728 70.3417 52.0496 70.9326 55.1796 70.9326C58.3097 70.9326 61.3084 70.3417 64.132 69.4223C64.6354 69.2691 65.1607 69.1816 65.686 69.1816C75.0762 69.1816 83.1311 74.5223 87.2461 82.2708C79.5414 91.3764 68.0281 97.1987 55.1796 97.1987Z" fill="black"/>
</svg>
